<svg width="244" height="51" viewBox="0 0 244 51" fill="none" xmlns="http://www.w3.org/2000/svg">
<path fill-rule="evenodd" clip-rule="evenodd" d="M34.4571 7.82759H15.5057C10.986 7.82759 7.32213 11.4942 7.32213 16.0172V34.9828C7.32213 39.5058 10.986 43.1724 15.5057 43.1724H34.4571C38.9767 43.1724 42.6406 39.5058 42.6406 34.9828V16.0172C42.6406 11.4942 38.9767 7.82759 34.4571 7.82759ZM15.5057 0.5C6.94213 0.5 0 7.44731 0 16.0172V34.9828C0 43.5527 6.94213 50.5 15.5057 50.5H34.4571C43.0206 50.5 49.9627 43.5527 49.9627 34.9828V16.0172C49.9627 7.44731 43.0206 0.5 34.4571 0.5H15.5057Z" fill="white"/>
<path d="M238.777 44.5144C232.862 44.5144 230.09 41.2611 230.09 36.0877V22.3811H225.561V16.301H230.357V10.4877L236.699 8.99438H237.232V16.301H243.894V22.3811H237.232V34.5411C237.232 37.1544 238.298 38.2744 240.803 38.2744C241.708 38.2744 242.614 38.1144 243.467 37.8477H244V43.8211C242.508 44.3011 240.749 44.5144 238.777 44.5144Z" fill="white"/>
<path d="M218.949 12.8345C216.018 12.8345 214.525 11.2345 214.525 8.46112C214.525 5.84779 216.018 4.19446 218.949 4.19446C221.72 4.19446 223.372 5.84779 223.372 8.46112C223.372 11.2345 221.72 12.8345 218.949 12.8345ZM222.466 44.0345H215.325V16.3011H222.466V44.0345Z" fill="white"/>
<path d="M195.608 44.5144C189.585 44.5144 185.908 40.941 185.908 35.8744C185.908 30.5944 189.639 27.2877 197.1 27.2877C199.498 27.2877 201.577 27.5544 203.282 28.141V25.741C203.282 23.341 201.736 21.6877 198.485 21.6877C195.554 21.6877 193.849 23.181 193.849 25.261H187.134C187.134 22.541 188.147 20.2477 190.118 18.4877C192.144 16.7277 194.968 15.821 198.645 15.821C205.947 15.821 210.423 19.8744 210.423 25.6877V44.0344H204.081L203.548 41.1544H203.335C201.63 43.3944 199.072 44.5144 195.608 44.5144ZM197.313 38.861C200.937 38.861 203.282 36.5677 203.282 33.741V33.1544C201.736 32.5677 199.871 32.2477 197.793 32.2477C194.755 32.2477 192.996 33.581 192.996 35.5544C192.996 37.5277 194.542 38.861 197.313 38.861Z" fill="white"/>
<path d="M175.147 44.0345H168.379V16.3012H174.401L174.934 20.5145H175.147C176.586 17.4212 178.984 15.8745 182.342 15.8745H184.367V22.4878H181.862C177.599 22.4878 175.147 25.3678 175.147 30.4345V44.0345Z" fill="white"/>
<path d="M158.572 44.5144C152.657 44.5144 149.885 41.2611 149.885 36.0877V22.3811H145.355V16.301H150.152V10.4877L156.494 8.99438H157.027V16.301H163.688V22.3811H157.027V34.5411C157.027 37.1544 158.093 38.2744 160.597 38.2744C161.503 38.2744 162.409 38.1144 163.262 37.8477H163.795V43.8211C162.303 44.3011 160.544 44.5144 158.572 44.5144Z" fill="white"/>
<path d="M133.613 44.0345H126.845V16.3012H132.867L133.4 20.5145H133.613C135.052 17.4212 137.45 15.8745 140.808 15.8745H142.833V22.4878H140.328C136.065 22.4878 133.613 25.3678 133.613 30.4345V44.0345Z" fill="white"/>
<path d="M109.507 44.5144C105.19 44.5144 101.832 43.181 99.4875 40.5677C97.1959 37.9544 96.0234 34.4877 96.0234 30.221C96.0234 25.9544 97.1959 22.4877 99.5408 19.821C101.886 17.1544 105.19 15.821 109.507 15.821C113.77 15.821 117.074 17.1544 119.419 19.821C121.764 22.4877 122.937 25.9544 122.937 30.221C122.937 34.4344 121.764 37.901 119.419 40.5677C117.128 43.181 113.823 44.5144 109.507 44.5144ZM115.689 30.221C115.689 24.8344 113.61 22.1144 109.507 22.1144C105.403 22.1144 103.325 24.8344 103.325 30.221C103.325 35.5544 105.403 38.2211 109.507 38.2211C113.61 38.2211 115.689 35.5544 115.689 30.221Z" fill="white"/>
<path d="M73.5346 44.0345H66.2334V6.70117H82.2215C85.952 6.70117 88.9365 7.82117 91.1748 10.1145C93.4131 12.4078 94.5323 15.2878 94.5323 18.8612C94.5323 22.4878 93.4131 25.4745 91.1215 27.7678C88.8832 30.0612 85.8987 31.2345 82.2215 31.2345H73.5346V44.0345ZM73.5346 13.2078V24.6745H80.8891C84.9927 24.6745 87.0712 22.7545 87.0712 18.8612C87.0712 15.2345 84.7796 13.2078 80.8891 13.2078H73.5346Z" fill="white"/>
</svg>
