<svg width="244" height="50" viewBox="0 0 244 50" fill="none" xmlns="http://www.w3.org/2000/svg">
<path fill-rule="evenodd" clip-rule="evenodd" d="M34.4571 7.32759H15.5057C10.986 7.32759 7.32213 10.9942 7.32213 15.5172V34.4828C7.32213 39.0058 10.986 42.6724 15.5057 42.6724H34.4571C38.9767 42.6724 42.6406 39.0058 42.6406 34.4828V15.5172C42.6406 10.9942 38.9767 7.32759 34.4571 7.32759ZM15.5057 0C6.94213 0 0 6.94731 0 15.5172V34.4828C0 43.0527 6.94213 50 15.5057 50H34.4571C43.0206 50 49.9627 43.0527 49.9627 34.4828V15.5172C49.9627 6.94731 43.0206 0 34.4571 0H15.5057Z" fill="black"/>
<path fill-rule="evenodd" clip-rule="evenodd" d="M34.4571 7.32759H15.5057C10.986 7.32759 7.32213 10.9942 7.32213 15.5172V34.4828C7.32213 39.0058 10.986 42.6724 15.5057 42.6724H34.4571C38.9767 42.6724 42.6406 39.0058 42.6406 34.4828V15.5172C42.6406 10.9942 38.9767 7.32759 34.4571 7.32759ZM15.5057 0C6.94213 0 0 6.94731 0 15.5172V34.4828C0 43.0527 6.94213 50 15.5057 50H34.4571C43.0206 50 49.9627 43.0527 49.9627 34.4828V15.5172C49.9627 6.94731 43.0206 0 34.4571 0H15.5057Z" fill="url(#paint0_linear_5986_11111)"/>
<path d="M238.777 44.0145C232.862 44.0145 230.091 40.7612 230.091 35.5878V21.8812H225.561V15.8012H230.357V9.98784L236.699 8.49451H237.232V15.8012H243.894V21.8812H237.232V34.0412C237.232 36.6545 238.298 37.7745 240.803 37.7745C241.709 37.7745 242.614 37.6145 243.467 37.3478H244V43.3212C242.508 43.8012 240.749 44.0145 238.777 44.0145Z" fill="black"/>
<path d="M218.949 12.3346C216.018 12.3346 214.525 10.7346 214.525 7.96125C214.525 5.34791 216.018 3.69458 218.949 3.69458C221.72 3.69458 223.372 5.34791 223.372 7.96125C223.372 10.7346 221.72 12.3346 218.949 12.3346ZM222.466 43.5346H215.325V15.8012H222.466V43.5346Z" fill="black"/>
<path d="M195.608 44.0146C189.585 44.0146 185.908 40.4413 185.908 35.3746C185.908 30.0946 189.639 26.788 197.1 26.788C199.498 26.788 201.577 27.0546 203.282 27.6413V25.2413C203.282 22.8413 201.736 21.188 198.485 21.188C195.554 21.188 193.849 22.6813 193.849 24.7613H187.134C187.134 22.0413 188.147 19.748 190.118 17.988C192.144 16.228 194.968 15.3213 198.645 15.3213C205.947 15.3213 210.423 19.3746 210.423 25.188V43.5346H204.081L203.548 40.6546H203.335C201.63 42.8946 199.072 44.0146 195.608 44.0146ZM197.313 38.3613C200.937 38.3613 203.282 36.068 203.282 33.2413V32.6546C201.736 32.068 199.871 31.748 197.793 31.748C194.755 31.748 192.996 33.0813 192.996 35.0546C192.996 37.028 194.542 38.3613 197.313 38.3613Z" fill="black"/>
<path d="M175.147 43.5348H168.379V15.8014H174.401L174.934 20.0148H175.147C176.586 16.9214 178.984 15.3748 182.342 15.3748H184.367V21.9881H181.862C177.599 21.9881 175.147 24.8681 175.147 29.9348V43.5348Z" fill="black"/>
<path d="M158.572 44.0145C152.657 44.0145 149.885 40.7612 149.885 35.5878V21.8812H145.355V15.8012H150.152V9.98784L156.494 8.49451H157.027V15.8012H163.688V21.8812H157.027V34.0412C157.027 36.6545 158.093 37.7745 160.597 37.7745C161.503 37.7745 162.409 37.6145 163.262 37.3478H163.795V43.3212C162.303 43.8012 160.544 44.0145 158.572 44.0145Z" fill="black"/>
<path d="M133.613 43.5348H126.845V15.8014H132.867L133.4 20.0148H133.613C135.052 16.9214 137.45 15.3748 140.808 15.3748H142.833V21.9881H140.328C136.065 21.9881 133.613 24.8681 133.613 29.9348V43.5348Z" fill="black"/>
<path d="M109.507 44.0146C105.19 44.0146 101.832 42.6813 99.4875 40.068C97.1959 37.4546 96.0234 33.988 96.0234 29.7213C96.0234 25.4546 97.1959 21.988 99.5408 19.3213C101.886 16.6546 105.19 15.3213 109.507 15.3213C113.77 15.3213 117.074 16.6546 119.419 19.3213C121.764 21.988 122.937 25.4546 122.937 29.7213C122.937 33.9346 121.764 37.4013 119.419 40.068C117.128 42.6813 113.823 44.0146 109.507 44.0146ZM115.689 29.7213C115.689 24.3346 113.61 21.6146 109.507 21.6146C105.403 21.6146 103.325 24.3346 103.325 29.7213C103.325 35.0546 105.403 37.7213 109.507 37.7213C113.61 37.7213 115.689 35.0546 115.689 29.7213Z" fill="black"/>
<path d="M73.5346 43.5346H66.2334V6.20129H82.2215C85.952 6.20129 88.9365 7.3213 91.1748 9.61463C93.4131 11.908 94.5323 14.788 94.5323 18.3613C94.5323 21.988 93.4131 24.9746 91.1215 27.268C88.8832 29.5613 85.8987 30.7346 82.2215 30.7346H73.5346V43.5346ZM73.5346 12.708V24.1746H80.8891C84.9927 24.1746 87.0712 22.2546 87.0712 18.3613C87.0712 14.7346 84.7796 12.708 80.8891 12.708H73.5346Z" fill="black"/>
<defs>
<linearGradient id="paint0_linear_5986_11111" x1="0.0691031" y1="25" x2="49.8936" y2="25" gradientUnits="userSpaceOnUse">
<stop stop-color="#26C0FF"/>
<stop offset="0.2" stop-color="#E600C2"/>
<stop offset="0.4" stop-color="#FF494E"/>
<stop offset="0.6" stop-color="#FFA13E"/>
<stop offset="0.8" stop-color="#FFC837"/>
<stop offset="1" stop-color="#00CC3D"/>
</linearGradient>
</defs>
</svg>
