<svg width="244" height="50" viewBox="0 0 244 50" fill="none" xmlns="http://www.w3.org/2000/svg">
<path fill-rule="evenodd" clip-rule="evenodd" d="M34.4571 7.32759H15.5057C10.986 7.32759 7.32213 10.9942 7.32213 15.5172V34.4828C7.32213 39.0058 10.986 42.6724 15.5057 42.6724H34.4571C38.9767 42.6724 42.6406 39.0058 42.6406 34.4828V15.5172C42.6406 10.9942 38.9767 7.32759 34.4571 7.32759ZM15.5057 0C6.94213 0 0 6.94731 0 15.5172V34.4828C0 43.0527 6.94213 50 15.5057 50H34.4571C43.0206 50 49.9627 43.0527 49.9627 34.4828V15.5172C49.9627 6.94731 43.0206 0 34.4571 0H15.5057Z" fill="black"/>
<path d="M238.777 44.0144C232.862 44.0144 230.09 40.7611 230.09 35.5877V21.8811H225.561V15.801H230.357V9.98772L236.699 8.49438H237.232V15.801H243.894V21.8811H237.232V34.0411C237.232 36.6544 238.298 37.7744 240.803 37.7744C241.708 37.7744 242.614 37.6144 243.467 37.3477H244V43.3211C242.508 43.8011 240.749 44.0144 238.777 44.0144Z" fill="black"/>
<path d="M218.949 12.3345C216.018 12.3345 214.525 10.7345 214.525 7.96112C214.525 5.34779 216.018 3.69446 218.949 3.69446C221.72 3.69446 223.372 5.34779 223.372 7.96112C223.372 10.7345 221.72 12.3345 218.949 12.3345ZM222.466 43.5345H215.325V15.8011H222.466V43.5345Z" fill="black"/>
<path d="M195.608 44.0144C189.585 44.0144 185.908 40.441 185.908 35.3744C185.908 30.0944 189.639 26.7877 197.1 26.7877C199.498 26.7877 201.577 27.0544 203.282 27.641V25.241C203.282 22.841 201.736 21.1877 198.485 21.1877C195.554 21.1877 193.849 22.681 193.849 24.761H187.134C187.134 22.041 188.147 19.7477 190.118 17.9877C192.144 16.2277 194.968 15.321 198.645 15.321C205.947 15.321 210.423 19.3744 210.423 25.1877V43.5344H204.081L203.548 40.6544H203.335C201.63 42.8944 199.072 44.0144 195.608 44.0144ZM197.313 38.361C200.937 38.361 203.282 36.0677 203.282 33.241V32.6544C201.736 32.0677 199.871 31.7477 197.793 31.7477C194.755 31.7477 192.996 33.081 192.996 35.0544C192.996 37.0277 194.542 38.361 197.313 38.361Z" fill="black"/>
<path d="M175.147 43.5345H168.379V15.8012H174.401L174.934 20.0145H175.147C176.586 16.9212 178.984 15.3745 182.342 15.3745H184.367V21.9878H181.862C177.599 21.9878 175.147 24.8678 175.147 29.9345V43.5345Z" fill="black"/>
<path d="M158.572 44.0144C152.657 44.0144 149.885 40.7611 149.885 35.5877V21.8811H145.355V15.801H150.152V9.98772L156.494 8.49438H157.027V15.801H163.688V21.8811H157.027V34.0411C157.027 36.6544 158.093 37.7744 160.597 37.7744C161.503 37.7744 162.409 37.6144 163.262 37.3477H163.795V43.3211C162.303 43.8011 160.544 44.0144 158.572 44.0144Z" fill="black"/>
<path d="M133.613 43.5345H126.845V15.8012H132.867L133.4 20.0145H133.613C135.052 16.9212 137.45 15.3745 140.808 15.3745H142.833V21.9878H140.328C136.065 21.9878 133.613 24.8678 133.613 29.9345V43.5345Z" fill="black"/>
<path d="M109.507 44.0144C105.19 44.0144 101.832 42.681 99.4875 40.0677C97.1959 37.4544 96.0234 33.9877 96.0234 29.721C96.0234 25.4544 97.1959 21.9877 99.5408 19.321C101.886 16.6544 105.19 15.321 109.507 15.321C113.77 15.321 117.074 16.6544 119.419 19.321C121.764 21.9877 122.937 25.4544 122.937 29.721C122.937 33.9344 121.764 37.401 119.419 40.0677C117.128 42.681 113.823 44.0144 109.507 44.0144ZM115.689 29.721C115.689 24.3344 113.61 21.6144 109.507 21.6144C105.403 21.6144 103.325 24.3344 103.325 29.721C103.325 35.0544 105.403 37.7211 109.507 37.7211C113.61 37.7211 115.689 35.0544 115.689 29.721Z" fill="black"/>
<path d="M73.5346 43.5345H66.2334V6.20117H82.2215C85.952 6.20117 88.9365 7.32117 91.1748 9.61451C93.4131 11.9078 94.5323 14.7878 94.5323 18.3612C94.5323 21.9878 93.4131 24.9745 91.1215 27.2678C88.8832 29.5612 85.8987 30.7345 82.2215 30.7345H73.5346V43.5345ZM73.5346 12.7078V24.1745H80.8891C84.9927 24.1745 87.0712 22.2545 87.0712 18.3612C87.0712 14.7345 84.7796 12.7078 80.8891 12.7078H73.5346Z" fill="black"/>
</svg>
