<svg width="488" height="100" viewBox="0 0 488 100" fill="none" xmlns="http://www.w3.org/2000/svg">
<path fill-rule="evenodd" clip-rule="evenodd" d="M68.9141 14.6552H31.0114C21.9721 14.6552 14.6443 21.9884 14.6443 31.0345V68.9655C14.6443 78.0116 21.9721 85.3448 31.0114 85.3448H68.9141C77.9534 85.3448 85.2812 78.0116 85.2812 68.9655V31.0345C85.2812 21.9884 77.9534 14.6552 68.9141 14.6552ZM31.0114 0C13.8843 0 0 13.8946 0 31.0345V68.9655C0 86.1054 13.8843 100 31.0114 100H68.9141C86.0412 100 99.9255 86.1054 99.9255 68.9655V31.0345C99.9255 13.8946 86.0412 0 68.9141 0H31.0114Z" fill="black"/>
<path fill-rule="evenodd" clip-rule="evenodd" d="M68.9141 14.6552H31.0114C21.9721 14.6552 14.6443 21.9884 14.6443 31.0345V68.9655C14.6443 78.0116 21.9721 85.3448 31.0114 85.3448H68.9141C77.9534 85.3448 85.2812 78.0116 85.2812 68.9655V31.0345C85.2812 21.9884 77.9534 14.6552 68.9141 14.6552ZM31.0114 0C13.8843 0 0 13.8946 0 31.0345V68.9655C0 86.1054 13.8843 100 31.0114 100H68.9141C86.0412 100 99.9255 86.1054 99.9255 68.9655V31.0345C99.9255 13.8946 86.0412 0 68.9141 0H31.0114Z" fill="url(#paint0_linear_5986_11111)"/>
<path d="M477.556 88.029C465.724 88.029 460.182 81.5224 460.182 71.1757V43.7623H451.122V31.6023H460.715V19.9757L473.399 16.989H474.465V31.6023H487.788V43.7623H474.465V68.0823C474.465 73.309 476.596 75.549 481.606 75.549C483.418 75.549 485.23 75.229 486.935 74.6957H488.001V86.6423C485.017 87.6023 481.499 88.029 477.556 88.029Z" fill="black"/>
<path d="M437.897 24.6693C432.034 24.6693 429.05 21.4693 429.05 15.9226C429.05 10.696 432.034 7.38928 437.897 7.38928C443.439 7.38928 446.743 10.696 446.743 15.9226C446.743 21.4693 443.439 24.6693 437.897 24.6693ZM444.931 87.0693H430.649V31.6026H444.931V87.0693Z" fill="black"/>
<path d="M391.216 88.0291C379.172 88.0291 371.817 80.8825 371.817 70.7491C371.817 60.1891 379.278 53.5758 394.201 53.5758C398.997 53.5758 403.154 54.1091 406.565 55.2825V50.4825C406.565 45.6825 403.474 42.3758 396.972 42.3758C391.11 42.3758 387.699 45.3625 387.699 49.5225H374.269C374.269 44.0825 376.294 39.4958 380.238 35.9758C384.288 32.4558 389.937 30.6425 397.292 30.6425C411.894 30.6425 420.847 38.7491 420.847 50.3758V87.0691H408.164L407.098 81.3091H406.671C403.261 85.7891 398.144 88.0291 391.216 88.0291ZM394.627 76.7225C401.875 76.7225 406.565 72.1358 406.565 66.4825V65.3091C403.474 64.1358 399.743 63.4958 395.586 63.4958C389.511 63.4958 385.993 66.1625 385.993 70.1091C385.993 74.0558 389.085 76.7225 394.627 76.7225Z" fill="black"/>
<path d="M350.294 87.0694H336.758V31.6027H348.802L349.868 40.0294H350.294C353.172 33.8427 357.969 30.7494 364.684 30.7494H368.734V43.9761H363.724C355.197 43.9761 350.294 49.7361 350.294 59.8694V87.0694Z" fill="black"/>
<path d="M317.146 88.029C305.314 88.029 299.772 81.5224 299.772 71.1757V43.7623H290.712V31.6023H300.305V19.9757L312.989 16.989H314.055V31.6023H327.378V43.7623H314.055V68.0823C314.055 73.309 316.186 75.549 321.196 75.549C323.008 75.549 324.82 75.229 326.525 74.6957H327.591V86.6423C324.607 87.6023 321.089 88.029 317.146 88.029Z" fill="black"/>
<path d="M267.226 87.0694H253.689V31.6027H265.734L266.8 40.0294H267.226C270.104 33.8427 274.9 30.7494 281.615 30.7494H285.666V43.9761H280.656C272.129 43.9761 267.226 49.7361 267.226 59.8694V87.0694Z" fill="black"/>
<path d="M219.013 88.0291C210.38 88.0291 203.665 85.3625 198.975 80.1358C194.392 74.9091 192.047 67.9758 192.047 59.4425C192.047 50.9091 194.392 43.9758 199.082 38.6425C203.771 33.3091 210.38 30.6425 219.013 30.6425C227.54 30.6425 234.149 33.3091 238.839 38.6425C243.528 43.9758 245.873 50.9091 245.873 59.4425C245.873 67.8691 243.528 74.8025 238.839 80.1358C234.255 85.3625 227.647 88.0291 219.013 88.0291ZM231.378 59.4425C231.378 48.6691 227.221 43.2291 219.013 43.2291C210.806 43.2291 206.649 48.6691 206.649 59.4425C206.649 70.1091 210.806 75.4425 219.013 75.4425C227.221 75.4425 231.378 70.1091 231.378 59.4425Z" fill="black"/>
<path d="M147.069 87.0693H132.467V12.4026H164.443C171.904 12.4026 177.873 14.6426 182.35 19.2293C186.826 23.8159 189.065 29.5759 189.065 36.7226C189.065 43.9759 186.826 49.9493 182.243 54.5359C177.766 59.1226 171.797 61.4693 164.443 61.4693H147.069V87.0693ZM147.069 25.4159V48.3493H161.778C169.985 48.3493 174.142 44.5093 174.142 36.7226C174.142 29.4693 169.559 25.4159 161.778 25.4159H147.069Z" fill="black"/>
<defs>
<linearGradient id="paint0_linear_5986_11111" x1="0.138206" y1="50" x2="99.7873" y2="50" gradientUnits="userSpaceOnUse">
<stop stop-color="#26C0FF"/>
<stop offset="0.2" stop-color="#E600C2"/>
<stop offset="0.4" stop-color="#FF494E"/>
<stop offset="0.6" stop-color="#FFA13E"/>
<stop offset="0.8" stop-color="#FFC837"/>
<stop offset="1" stop-color="#00CC3D"/>
</linearGradient>
</defs>
</svg>
