<svg width="488" height="100" viewBox="0 0 488 100" fill="none" xmlns="http://www.w3.org/2000/svg">
<path fill-rule="evenodd" clip-rule="evenodd" d="M68.9141 14.6552H31.0114C21.9721 14.6552 14.6443 21.9884 14.6443 31.0345V68.9655C14.6443 78.0116 21.9721 85.3448 31.0114 85.3448H68.9141C77.9534 85.3448 85.2812 78.0116 85.2812 68.9655V31.0345C85.2812 21.9884 77.9534 14.6552 68.9141 14.6552ZM31.0114 0C13.8843 0 0 13.8946 0 31.0345V68.9655C0 86.1054 13.8843 100 31.0114 100H68.9141C86.0412 100 99.9255 86.1054 99.9255 68.9655V31.0345C99.9255 13.8946 86.0412 0 68.9141 0H31.0114Z" fill="black"/>
<path d="M477.554 88.0288C465.723 88.0288 460.18 81.5221 460.18 71.1754V43.7621H451.12V31.6021H460.713V19.9754L473.397 16.9888H474.463V31.6021H487.786V43.7621H474.463V68.0821C474.463 73.3088 476.594 75.5488 481.604 75.5488C483.416 75.5488 485.228 75.2288 486.933 74.6954H487.999V86.6421C485.015 87.6021 481.497 88.0288 477.554 88.0288Z" fill="black"/>
<path d="M437.896 24.669C432.033 24.669 429.049 21.469 429.049 15.9224C429.049 10.6957 432.033 7.38904 437.896 7.38904C443.438 7.38904 446.742 10.6957 446.742 15.9224C446.742 21.469 443.438 24.669 437.896 24.669ZM444.93 87.069H430.648V31.6024H444.93V87.069Z" fill="black"/>
<path d="M391.214 88.0289C379.17 88.0289 371.815 80.8822 371.815 70.7489C371.815 60.1889 379.277 53.5756 394.199 53.5756C398.995 53.5756 403.152 54.1089 406.563 55.2822V50.4822C406.563 45.6822 403.472 42.3755 396.97 42.3755C391.108 42.3755 387.697 45.3622 387.697 49.5222H374.267C374.267 44.0822 376.292 39.4955 380.236 35.9755C384.286 32.4555 389.935 30.6422 397.29 30.6422C411.892 30.6422 420.846 38.7489 420.846 50.3755V87.0689H408.162L407.096 81.3089H406.669C403.259 85.7889 398.142 88.0289 391.214 88.0289ZM394.625 76.7222C401.873 76.7222 406.563 72.1356 406.563 66.4822V65.3089C403.472 64.1356 399.741 63.4956 395.584 63.4956C389.509 63.4956 385.992 66.1622 385.992 70.1089C385.992 74.0556 389.083 76.7222 394.625 76.7222Z" fill="black"/>
<path d="M350.292 87.0691H336.756V31.6025H348.8L349.866 40.0291H350.292C353.17 33.8425 357.967 30.7491 364.682 30.7491H368.732V43.9758H363.722C355.195 43.9758 350.292 49.7358 350.292 59.8691V87.0691Z" fill="black"/>
<path d="M317.145 88.0288C305.313 88.0288 299.771 81.5221 299.771 71.1754V43.7621H290.711V31.6021H300.304V19.9754L312.988 16.9888H314.054V31.6021H327.377V43.7621H314.054V68.0821C314.054 73.3088 316.185 75.5488 321.195 75.5488C323.007 75.5488 324.819 75.2288 326.524 74.6954H327.59V86.6421C324.606 87.6021 321.088 88.0288 317.145 88.0288Z" fill="black"/>
<path d="M267.225 87.0691H253.688V31.6025H265.733L266.799 40.0291H267.225C270.103 33.8425 274.899 30.7491 281.614 30.7491H285.665V43.9758H280.655C272.128 43.9758 267.225 49.7358 267.225 59.8691V87.0691Z" fill="black"/>
<path d="M219.012 88.0289C210.379 88.0289 203.664 85.3622 198.974 80.1356C194.391 74.9089 192.046 67.9756 192.046 59.4422C192.046 50.9089 194.391 43.9755 199.081 38.6422C203.77 33.3089 210.379 30.6422 219.012 30.6422C227.539 30.6422 234.148 33.3089 238.838 38.6422C243.528 43.9755 245.872 50.9089 245.872 59.4422C245.872 67.8689 243.528 74.8022 238.838 80.1356C234.254 85.3622 227.646 88.0289 219.012 88.0289ZM231.377 59.4422C231.377 48.6689 227.22 43.2289 219.012 43.2289C210.805 43.2289 206.648 48.6689 206.648 59.4422C206.648 70.1089 210.805 75.4422 219.012 75.4422C227.22 75.4422 231.377 70.1089 231.377 59.4422Z" fill="black"/>
<path d="M147.068 87.069H132.466V12.4023H164.442C171.903 12.4023 177.872 14.6423 182.349 19.229C186.825 23.8157 189.064 29.5757 189.064 36.7223C189.064 43.9757 186.825 49.949 182.242 54.5357C177.765 59.1223 171.796 61.469 164.442 61.469H147.068V87.069ZM147.068 25.4157V48.349H161.777C169.985 48.349 174.141 44.509 174.141 36.7223C174.141 29.469 169.558 25.4157 161.777 25.4157H147.068Z" fill="black"/>
</svg>
